<?xml version="1.0" encoding="UTF-8" standalone="no"?>
<svg
   xmlns:dc="http://purl.org/dc/elements/1.1/"
   xmlns:cc="http://web.resource.org/cc/"
   xmlns:rdf="http://www.w3.org/1999/02/22-rdf-syntax-ns#"
   xmlns:svg="http://www.w3.org/2000/svg"
   xmlns="http://www.w3.org/2000/svg"
   xmlns:sodipodi="http://sodipodi.sourceforge.net/DTD/sodipodi-0.dtd"
   xmlns:inkscape="http://www.inkscape.org/namespaces/inkscape"
   baseProfile="tiny"
   version="1.0"
   viewBox="0 0 480 480"
   id="svg2"
   sodipodi:version="0.32"
   inkscape:version="0.45.1"
   width="1951.1179"
   height="316.42477"
   sodipodi:docname="logo.svg"
   sodipodi:docbase="/home/josch/Desktop"
   inkscape:output_extension="org.inkscape.output.svg.inkscape"
   inkscape:export-filename="/home/josch/Desktop/logo.png"
   inkscape:export-xdpi="19.909945"
   inkscape:export-ydpi="19.909945">
  <metadata
     id="metadata27">
    <rdf:RDF>
      <cc:Work
         rdf:about="">
        <dc:format>image/svg+xml</dc:format>
        <dc:type
           rdf:resource="http://purl.org/dc/dcmitype/StillImage" />
      </cc:Work>
    </rdf:RDF>
  </metadata>
  <sodipodi:namedview
     inkscape:window-height="861"
     inkscape:window-width="1627"
     inkscape:pageshadow="2"
     inkscape:pageopacity="0.0"
     guidetolerance="10.0"
     gridtolerance="10.0"
     objecttolerance="10.0"
     borderopacity="1.0"
     bordercolor="#666666"
     pagecolor="#ffffff"
     id="base"
     inkscape:zoom="0.36014217"
     inkscape:cx="945.7536"
     inkscape:cy="434.17873"
     inkscape:window-x="127"
     inkscape:window-y="201"
     inkscape:current-layer="g2207"
     width="507.09px"
     height="1052.3622px" />
  <defs
     id="defs6">
    <filter
       id="f1">
      <feGaussianBlur
         in="SourceGraphic"
         stdDeviation="4"
         id="feGaussianBlur9" />
    </filter>
  </defs>
  <g
     id="g2207"
     transform="translate(10.530493,-2.0363194)">
    <g
       inkscape:export-ydpi="14.68023"
       inkscape:export-xdpi="14.68023"
       transform="matrix(1.1865606,0,0,1.1865604,-1248.4836,-55.608809)"
       id="original">
      <path
         id="path20"
         d="M 386.235,101 C 425.885,135.77 447.975,188.54 445.235,258 C 440.245,197.15 419.695,159.91 386.235,131 C 352.745,102.06 291.435,79.23 231.235,96 C 224.075,98 216.435,101.44 209.235,100 C 198.285,97.81 188.845,84.88 194.235,72 C 199.145,60.26 232.265,57.1 247.235,56 C 307.275,51.581 353.845,72.59 386.235,101 z " />
      <path
         id="path22"
         d="M 155.235,86 C 160.826,81.691 155.747,89.397 157.235,87 C 146.475,98.923 78.891,149.722 85.235,245 C 86.373,262.086 91.145,275.95 96.235,291 C 133.685,284.03 155.105,273 171.235,255 C 194.295,229.27 199.735,190.16 195.235,144 C 193.535,126.54 192.055,105.43 213.235,108 C 240.795,111.34 223.035,155.36 225.235,179 C 231.055,241.5 301.945,252.72 372.235,246 C 388.145,244.48 412.005,244.64 414.235,255 C 419.085,277.57 372.994,283.641 339.235,281 C 253.23,274.272 202.955,310.94 199.235,389 C 247.805,410.1 314.695,399.04 349.235,372 C 372.635,353.68 387.095,332.5 398.235,304 C 402.395,293.36 403.485,280.89 409.235,276 C 418.765,267.89 437.675,272.02 441.235,282 C 445.685,294.47 417.901,380 332.235,416 C 295.634,431.381 244.505,437.71 201.235,422 C 199.805,437.19 193.095,448.21 179.235,446 C 165.165,443.76 163.775,423.13 168.235,408 C 135.955,389.28 111.325,362.91 92.235,331 C 79.315,332.64 46.045,341.96 41.235,328 C 35.325,310.85 66.485,297.37 78.235,295 C 78.235,295 36.991,166.956 155.235,86 z M 170.235,376 C 171.495,355.07 163.595,337.98 152.235,333 C 141.002,329.802 121.325,327.98 119.235,330 C 131.855,349.72 149.205,364.701 170.235,376 z " />
      <circle
         sodipodi:ry="32.667"
         sodipodi:rx="32.667"
         sodipodi:cy="192.00101"
         sodipodi:cx="287.23401"
         id="circle24"
         r="32.667"
         cy="192.00101"
         cx="287.23401" />
    </g>
    <path
       transform="scale(0.8007346,1.2488532)"
       style="font-size:297.49130249px;font-style:normal;font-weight:normal;fill:#000000;fill-opacity:1;stroke:none;stroke-width:1px;stroke-linecap:butt;stroke-linejoin:miter;stroke-opacity:1;font-family:Monospace"
       d="M -680.21016,89.70244 L -694.0098,144.02947 L -664.52214,144.02947 L -650.86775,89.70244 L -618.32964,89.70244 L -632.4198,144.02947 L -604.38474,144.02947 L -604.38474,175.26024 L -640.11855,175.26024 L -650.86775,217.82125 L -621.08957,217.82125 L -621.08957,249.05203 L -658.5665,249.05203 L -672.22089,303.2338 L -704.32322,303.2338 L -690.66883,249.05203 L -720.44702,249.05203 L -734.1014,303.2338 L -766.20374,303.2338 L -752.54935,249.05203 L -782.61805,249.05203 L -782.61805,217.82125 L -744.8506,217.82125 L -734.1014,175.26024 L -765.91322,175.26024 L -765.91322,144.02947 L -726.11213,144.02947 L -712.45775,89.70244 L -680.21016,89.70244 M -672.22089,175.26024 L -701.99907,175.26024 L -712.74827,217.82125 L -682.97008,217.82125 L -672.22089,175.26024 M -448.37612,197.63019 L -448.37612,303.2338 L -490.64661,303.2338 L -490.64661,204.16687 C -490.64672,192.35254 -492.34141,183.92751 -495.73069,178.89173 C -499.02334,173.75936 -504.44635,171.19311 -511.99974,171.19298 C -519.65016,171.19311 -525.70263,174.63091 -530.15717,181.5064 C -534.51502,188.38212 -536.69391,197.92082 -536.69385,210.1225 L -536.69385,303.2338 L -578.96434,303.2338 L -578.96434,140.54324 L -536.69385,140.54324 L -536.69385,164.94682 C -533.69189,155.94089 -528.55939,148.96844 -521.29635,144.02947 C -514.03347,139.09081 -505.26949,136.6214 -495.00439,136.62123 C -479.60702,136.6214 -467.98627,141.7539 -460.14213,152.01873 C -452.29827,162.18703 -448.37627,177.39084 -448.37612,197.63019 M -264.91346,295.24453 C -274.79125,299.31179 -284.86256,302.36224 -295.12742,304.39587 C -305.39254,306.4295 -316.23857,307.44631 -327.66553,307.44632 C -354.87754,307.44631 -375.69803,300.18335 -390.12709,285.6574 C -404.45937,271.03465 -411.6255,250.02048 -411.62548,222.61481 C -411.6255,196.08087 -404.70147,175.11511 -390.85338,159.71748 C -377.00537,144.32014 -358.12166,136.6214 -334.20221,136.62123 C -310.08926,136.6214 -291.39923,143.78753 -278.13207,158.11963 C -264.76836,172.35518 -258.08644,192.44938 -258.08627,218.40229 L -258.08627,235.68816 L -368.33817,235.68816 C -368.24139,248.47105 -364.46465,258.00974 -357.00794,264.30427 C -349.55136,270.59888 -338.41482,273.74616 -323.59827,273.74613 C -313.81758,273.74616 -304.18205,272.34199 -294.69165,269.53361 C -285.2015,266.7253 -275.27545,262.27068 -264.91346,256.16974 L -264.91346,295.24453 M -300.9378,203.73109 C -301.1316,192.4978 -304.03679,184.02435 -309.65337,178.31069 C -315.17333,172.50044 -323.35627,169.59526 -334.20221,169.59512 C -343.98309,169.59526 -351.77867,172.59728 -357.58898,178.60121 C -363.39941,184.50854 -366.83722,192.93358 -367.9024,203.87635 L -300.9378,203.73109 M -156.54992,171.19298 C -166.71816,171.19311 -174.70742,175.69615 -180.51772,184.7021 C -186.32816,193.61146 -189.23335,206.05534 -189.23329,222.03378 C -189.23335,238.01238 -186.32816,250.50468 -180.51772,259.51071 C -174.70742,268.41999 -166.71816,272.87461 -156.54992,272.87458 C -146.28502,272.87461 -138.24734,268.41999 -132.43685,259.51071 C -126.6266,250.50468 -123.72141,238.01238 -123.72129,222.03378 C -123.72141,206.05534 -126.6266,193.61146 -132.43685,184.7021 C -138.24734,175.69615 -146.28502,171.19311 -156.54992,171.19298 M -231.7943,222.03378 C -231.79431,195.79035 -225.01555,175.01827 -211.45798,159.71748 C -197.80364,144.32014 -179.50097,136.6214 -156.54992,136.62123 C -133.5022,136.6214 -115.19953,144.32014 -101.64186,159.71748 C -87.987628,175.01827 -81.160442,195.79035 -81.160277,222.03378 C -81.160442,248.27737 -87.987628,269.09786 -101.64186,284.49533 C -115.19953,299.79599 -133.5022,307.44631 -156.54992,307.44632 C -179.50097,307.44631 -197.80364,299.79599 -211.45798,284.49533 C -225.01555,269.09786 -231.79431,248.27737 -231.7943,222.03378 M -39.761357,265.46634 L 8.1742528,265.46634 L 8.1742528,124.70996 L -36.420391,135.74968 L -36.420391,97.110671 L 8.4647716,86.361474 L 49.863708,86.361474 L 49.863708,265.46634 L 97.799318,265.46634 L 97.799318,303.2338 L -39.761357,303.2338 L -39.761357,265.46634 M 141.37713,300.32861 L 141.37713,261.25382 C 149.02742,265.70848 156.3388,269.00102 163.3113,271.13146 C 170.38054,273.26196 177.1593,274.3272 183.64762,274.32717 C 199.04503,274.3272 210.76262,269.1947 218.8004,258.92967 C 226.93481,248.56789 231.24417,233.12198 231.72849,212.59191 C 227.17691,218.88657 221.36654,223.63171 214.29736,226.82734 C 207.22797,229.92628 198.85135,231.47571 189.16748,231.47564 C 169.70266,231.47571 154.64411,225.3264 143.9918,213.02769 C 133.33942,200.63232 128.01325,183.10437 128.01326,160.44378 C 128.01325,136.23404 133.96888,117.4956 145.88017,104.22838 C 157.7914,90.961568 174.64147,84.328061 196.43045,84.327842 C 222.86756,84.328061 242.04178,93.188877 253.95318,110.91032 C 265.96114,128.5353 271.96519,157.05454 271.96535,196.46812 C 271.96519,233.94512 264.65381,262.077 250.03118,280.86384 C 235.40827,299.55389 213.47412,308.89891 184.22866,308.89891 C 177.44982,308.89891 170.42896,308.17261 163.16604,306.72002 C 155.99987,305.26743 148.7369,303.13696 141.37713,300.32861 M 197.59253,195.59656 C 206.79219,195.59667 213.81306,192.25571 218.65514,185.57366 C 223.59385,178.79501 226.06326,169.01422 226.06337,156.23126 C 226.06326,143.54543 223.59385,133.86147 218.65514,127.17937 C 213.81306,120.40078 206.79219,117.0114 197.59253,117.01121 C 188.29585,117.0114 181.12972,120.40078 176.09413,127.17937 C 171.15525,133.86147 168.68584,143.54543 168.6859,156.23126 C 168.68584,168.91738 171.15525,178.64975 176.09413,185.4284 C 181.12972,192.20729 188.29585,195.59667 197.59253,195.59656 M 310.45914,86.361474 L 447.58404,86.361474 L 447.58404,116.72069 L 374.08277,303.2338 L 330.35968,303.2338 L 400.95577,124.12892 L 310.45914,124.12892 L 310.45914,86.361474 M 549.55614,206.2005 L 526.60515,206.2005 L 526.60515,168.43305 L 549.55614,168.43305 C 560.20841,168.43318 568.43977,166.35113 574.25024,162.18689 C 580.15735,157.9261 583.11095,151.97047 583.11107,144.31998 C 583.11095,136.28246 580.15735,130.03631 574.25024,125.58152 C 568.43977,121.03024 560.20841,118.75451 549.55614,118.75433 C 541.42154,118.75451 532.70598,119.77132 523.40944,121.80477 C 514.1128,123.83858 504.47726,126.79219 494.50282,130.6656 L 494.50282,91.736072 C 504.47726,88.734259 514.30648,86.45853 523.99048,84.908879 C 533.67438,83.262826 542.97097,82.43969 551.88029,82.439469 C 574.73434,82.43969 592.55281,87.426925 605.33576,97.40119 C 618.11844,107.37587 624.50985,121.12708 624.51,138.65487 C 624.50985,151.53469 620.82995,162.09019 613.47029,170.32142 C 606.11034,178.45607 595.60325,183.78225 581.94899,186.29996 C 597.4432,189.01158 609.25762,195.20931 617.39229,204.89316 C 625.52666,214.48038 629.59392,227.11793 629.59408,242.80587 C 629.59392,263.82011 622.86358,279.84705 609.40302,290.88674 C 595.94219,301.92646 576.38061,307.44631 550.71822,307.44632 C 539.77527,307.44631 528.97766,306.52634 518.32536,304.68639 C 507.76981,302.84644 497.65008,300.18335 487.96614,296.69712 L 487.96614,256.89604 C 497.06904,261.44754 506.89825,264.93377 517.45381,267.35472 C 528.00927,269.6789 539.09739,270.84098 550.71822,270.84094 C 562.33888,270.84098 571.53863,268.17789 578.31751,262.85168 C 585.09616,257.4287 588.48555,250.16574 588.48567,241.06276 C 588.48555,229.92628 585.09616,221.35598 578.31751,215.35184 C 571.53863,209.25104 561.95152,206.2006 549.55614,206.2005 M 692.4914,196.46812 L 784.15009,196.46812 L 784.15009,238.73861 L 692.4914,238.73861 L 692.4914,196.46812 M 944.37122,219.27385 C 944.37111,204.748 941.61118,193.12726 936.09144,184.41159 C 930.57148,175.59931 923.30851,171.19311 914.30252,171.19298 C 905.3932,171.19311 898.17866,175.55089 892.65887,184.26633 C 887.23579,192.982 884.52428,204.65116 884.52434,219.27385 C 884.52428,233.99354 887.23579,245.71112 892.65887,254.42663 C 898.17866,263.14223 905.3932,267.50001 914.30252,267.49998 C 923.30851,267.50001 930.57148,263.14223 936.09144,254.42663 C 941.61118,245.61428 944.37111,233.8967 944.37122,219.27385 M 986.93224,291.032 C 986.93208,317.08185 981.02487,335.86871 969.21059,347.39266 C 957.49286,359.01336 938.41548,364.82373 911.97837,364.82379 C 903.06905,364.82373 894.25666,364.14585 885.54116,362.79016 C 876.82554,361.53119 867.96473,359.54598 858.95868,356.83452 L 858.95868,317.75974 C 866.99633,322.21434 875.17927,325.50688 883.50752,327.63738 C 891.83567,329.76782 900.40596,330.83306 909.21844,330.83309 C 921.22646,330.83306 930.08728,327.97629 935.80092,322.26278 C 941.51434,316.64607 944.37111,307.83367 944.37122,295.82556 L 944.37122,278.24917 C 940.20701,285.99636 934.68715,291.75831 927.81165,295.53505 C 920.93594,299.31179 912.55932,301.20017 902.68177,301.20016 C 884.08851,301.20017 869.32048,293.9372 858.37764,279.41125 C 847.43475,264.88535 841.96331,245.1785 841.96333,220.29066 C 841.96331,194.53143 847.43475,174.0983 858.37764,158.99119 C 869.32048,143.88437 883.99167,136.33088 902.39125,136.33072 C 911.68777,136.33088 919.96755,138.50977 927.23061,142.86739 C 934.49348,147.22533 940.20701,153.37464 944.37122,161.31534 L 944.37122,140.54324 L 986.93224,140.54324 L 986.93224,291.032 M 1166.7634,295.24453 C 1156.8856,299.31179 1146.8143,302.36224 1136.5494,304.39587 C 1126.2843,306.4295 1115.4383,307.44631 1104.0113,307.44632 C 1076.7993,307.44631 1055.9788,300.18335 1041.5498,285.6574 C 1027.2175,271.03465 1020.0514,250.02048 1020.0514,222.61481 C 1020.0514,196.08087 1026.9754,175.11511 1040.8235,159.71748 C 1054.6715,144.32014 1073.5552,136.6214 1097.4746,136.62123 C 1121.5876,136.6214 1140.2776,143.78753 1153.5448,158.11963 C 1166.9085,172.35518 1173.5904,192.44938 1173.5906,218.40229 L 1173.5906,235.68816 L 1063.3387,235.68816 C 1063.4355,248.47105 1067.2122,258.00974 1074.6689,264.30427 C 1082.1255,270.59888 1093.262,273.74616 1108.0786,273.74613 C 1117.8593,273.74616 1127.4948,272.34199 1136.9852,269.53361 C 1146.4753,266.7253 1156.4014,262.27068 1166.7634,256.16974 L 1166.7634,295.24453 M 1130.739,203.73109 C 1130.5452,192.4978 1127.6401,184.02435 1122.0235,178.31069 C 1116.5035,172.50044 1108.3206,169.59526 1097.4746,169.59512 C 1087.6938,169.59526 1079.8982,172.59728 1074.0879,178.60121 C 1068.2774,184.50854 1064.8396,192.93358 1063.7745,203.87635 L 1130.739,203.73109 M 1352.8407,185.4284 C 1348.1922,181.16758 1342.7208,177.97188 1336.4264,175.84128 C 1330.2285,173.71094 1323.4013,172.6457 1315.9448,172.64557 C 1306.9386,172.6457 1299.0462,174.24355 1292.2675,177.43913 C 1285.5855,180.53812 1280.4046,185.08958 1276.7248,191.09352 C 1274.4005,194.77353 1272.7542,199.22815 1271.7859,204.45739 C 1270.9143,209.68682 1270.4785,217.62766 1270.4786,228.27993 L 1270.4786,303.2338 L 1227.9176,303.2338 L 1227.9176,140.54324 L 1270.4786,140.54324 L 1270.4786,165.81838 C 1274.6426,156.52192 1281.034,149.3558 1289.6528,144.31998 C 1298.2715,139.18765 1308.3428,136.6214 1319.8668,136.62123 C 1325.677,136.6214 1331.3422,137.3477 1336.8622,138.80013 C 1342.4787,140.15604 1347.8049,142.18967 1352.8407,144.90102 L 1352.8407,185.4284 M 1464.8358,156.81229 C 1468.0314,149.93684 1472.0987,144.85276 1477.0376,141.56006 C 1481.9763,138.26767 1488.0288,136.6214 1495.195,136.62123 C 1509.2366,136.6214 1518.9206,141.46338 1524.2469,151.14718 C 1529.6698,160.83128 1532.3813,180.9739 1532.3814,211.5751 L 1532.3814,303.2338 L 1497.5192,303.2338 L 1497.5192,198.79227 C 1497.5191,186.68743 1496.5991,178.60133 1494.7593,174.53394 C 1492.9192,170.46681 1489.5782,168.43318 1484.7364,168.43305 C 1479.8943,168.43318 1476.5049,170.51523 1474.5682,174.6792 C 1472.6313,178.84343 1471.6629,186.88111 1471.663,198.79227 L 1471.663,303.2338 L 1437.2365,303.2338 L 1437.2365,198.79227 C 1437.2365,186.88111 1436.2681,178.84343 1434.3313,174.6792 C 1432.3945,170.51523 1429.0051,168.43318 1424.1632,168.43305 C 1419.3211,168.43318 1415.9802,170.46681 1414.1403,174.53394 C 1412.3003,178.60133 1411.3803,186.68743 1411.3803,198.79227 L 1411.3803,303.2338 L 1376.5181,303.2338 L 1376.5181,140.54324 L 1407.4583,140.54324 L 1407.4583,157.39333 C 1409.8793,151.00207 1413.7529,145.96641 1419.0791,142.28635 C 1424.4052,138.50977 1430.3608,136.6214 1436.946,136.62123 C 1443.531,136.6214 1449.5351,138.60661 1454.9582,142.57687 C 1460.3811,146.45061 1463.6736,151.19575 1464.8358,156.81229 M 1645.2479,226.82734 C 1629.3661,226.82741 1618.278,228.86104 1611.9835,232.92823 C 1605.6888,236.99556 1602.5416,243.96801 1602.5416,253.84559 C 1602.5416,261.20544 1604.7204,267.06423 1609.0783,271.42198 C 1613.436,275.77979 1619.3432,277.95868 1626.7999,277.95866 C 1638.0332,277.95868 1646.7488,273.74616 1652.9466,265.32109 C 1659.1443,256.79925 1662.2431,244.9364 1662.2432,229.73253 L 1662.2432,226.82734 L 1645.2479,226.82734 M 1704.5137,210.41302 L 1704.5137,303.2338 L 1662.2432,303.2338 L 1662.2432,285.07637 C 1657.1106,292.24251 1650.5255,297.76236 1642.488,301.63594 C 1634.4502,305.50952 1625.5894,307.44631 1615.9055,307.44632 C 1597.4091,307.44631 1582.98,302.55592 1572.6182,292.77512 C 1562.3532,282.99434 1557.2207,269.33996 1557.2207,251.81196 C 1557.2207,232.83146 1563.37,218.83815 1575.6686,209.83198 C 1587.9672,200.72916 1606.9962,196.17771 1632.7556,196.1776 L 1662.2432,196.1776 L 1662.2432,189.05989 C 1662.2431,182.1844 1659.7253,177.00348 1654.6897,173.51713 C 1649.7508,169.9342 1642.4394,168.14266 1632.7556,168.14253 C 1622.5873,168.14266 1612.7097,169.45 1603.1226,172.06453 C 1593.6323,174.58249 1583.7063,178.64975 1573.3445,184.26633 L 1573.3445,147.95147 C 1582.7379,144.07804 1592.2766,141.22128 1601.9606,139.38116 C 1611.6445,137.54138 1621.9095,136.6214 1632.7556,136.62123 C 1659.1927,136.6214 1677.7374,141.99599 1688.3899,152.74503 C 1699.139,163.49437 1704.5136,182.71701 1704.5137,210.41302 M 1878.0988,197.63019 L 1878.0988,303.2338 L 1835.8284,303.2338 L 1835.8284,204.16687 C 1835.8282,192.35254 1834.1335,183.92751 1830.7443,178.89173 C 1827.4516,173.75936 1822.0286,171.19311 1814.4752,171.19298 C 1806.8248,171.19311 1800.7723,174.63091 1796.3178,181.5064 C 1791.9599,188.38212 1789.781,197.92082 1789.7811,210.1225 L 1789.7811,303.2338 L 1747.5106,303.2338 L 1747.5106,140.54324 L 1789.7811,140.54324 L 1789.7811,164.94682 C 1792.7831,155.94089 1797.9156,148.96844 1805.1786,144.02947 C 1812.4415,139.09081 1821.2055,136.6214 1831.4706,136.62123 C 1846.8679,136.6214 1858.4887,141.7539 1866.3328,152.01873 C 1874.1767,162.18703 1878.0987,177.39084 1878.0988,197.63019 M 2004.7649,320.81019 C 1999.0513,336.11081 1992.1757,347.24736 1984.1381,354.21985 C 1976.1972,361.28909 1966.5132,364.82373 1955.0862,364.82379 L 1919.9334,364.82379 L 1919.9334,332.43094 L 1937.2193,332.43094 C 1945.9348,332.43091 1952.3262,330.9299 1956.3935,327.9279 C 1960.4607,325.02269 1964.5764,318.1955 1968.7406,307.44632 L 1971.9363,298.73075 L 1910.0558,140.54324 L 1954.7957,140.54324 L 1991.9821,246.14684 L 2027.5707,140.54324 L 2072.3106,140.54324 L 2004.7649,320.81019"
       id="text2179" />
  </g>
</svg>
